<svg width="219" height="197" viewBox="0 0 219 197" fill="none" xmlns="http://www.w3.org/2000/svg">
<path d="M15.4099 97.6099C16.0099 47.4599 57.0899 5.32995 109.15 5.31995C160.69 5.30995 202.8 47.54 202.69 98.9799C202.58 150.69 160.49 192.72 108.81 192.55C56.4799 192.38 14.6199 149.32 15.4099 97.6099ZM109.1 171.68C149.13 171.7 181.66 139.3 181.88 99.5099C182.1 58.6399 148.89 25.5799 107.96 26.1599C68.6199 26.7199 36.2599 58.6199 36.2499 98.8599C36.2199 139.27 68.6399 171.66 109.1 171.68Z" fill="white"/>
<path d="M120.95 93.4C128.55 88.77 135.88 84.29 143.22 79.83C146.5 77.84 149.93 77.61 153.37 79.32C157.06 81.15 159.04 84.27 159.16 88.35C159.28 92.37 157.46 95.52 154 97.64C141.83 105.11 129.68 112.6 117.47 120C115.79 121.02 113.9 121.94 111.99 122.32C106.11 123.5 100.25 118.68 100.16 112.64C100.05 105.37 100.12 98.09 100.12 90.82C100.12 74.26 100.14 57.71 100.1 41.15C100.09 38.44 100.71 35.99 102.45 33.87C105.24 30.48 109.82 29.2 113.93 30.64C118.1 32.1 120.88 35.88 120.91 40.43C120.97 49.93 120.94 59.43 120.94 68.92C120.94 76.58 120.94 84.24 120.94 91.89C120.95 92.32 120.95 92.73 120.95 93.4Z" fill="white"/>
</svg>
