<svg width="219" height="197" viewBox="0 0 219 197" fill="none" xmlns="http://www.w3.org/2000/svg">
<path d="M174.58 72.06C174.58 35.26 145.44 5.48999 109.57 5.48999C73.6501 5.48999 44.5601 35.26 44.5601 72.06C44.5601 85.86 48.6301 98.64 55.5701 109.26L55.6501 109.42H55.6901L109.57 192.43L163.56 109.26H163.48C170.47 98.64 174.58 85.86 174.58 72.06ZM109.57 109.26C89.5701 109.26 73.3301 92.66 73.3301 72.06C73.3301 51.63 89.5701 35.03 109.57 35.03C129.56 35.03 145.8 51.63 145.8 72.06C145.81 92.66 129.57 109.26 109.57 109.26Z" fill="white"/>
</svg>
