<svg width="219" height="197" viewBox="0 0 219 197" fill="none" xmlns="http://www.w3.org/2000/svg">
<path fill-rule="evenodd" clip-rule="evenodd" d="M29.48 62.34C29.68 45.16 36.6 30.19 49.24 18.56C54.29 14.12 61.12 5.61999 68.75 6.42999C76.68 7.43999 82.44 16.34 86.28 22.4C93.2 33.11 104.27 48.68 94.12 60.62C89.21 66.28 81.53 69.32 77.13 75.38C72.64 81.64 75.27 89.93 78.35 96.2C85.52 110.35 97.55 123.9 109.73 133.91C115.13 138.26 122.62 143.71 130.05 142.5C137.83 141.29 143.8 132.7 149.51 127.95C164.06 116.22 180.04 132.19 190.75 141.89C195.71 146.34 201.57 152.2 201.27 159.58C200.96 166.86 191.36 173.03 186.16 177.37C171.91 188.89 154.22 192.83 136.17 188.99C116.85 184.94 100.58 173.42 86.03 160.69C71.37 147.44 58.73 131.57 47.92 115.2C42.87 107.62 38.37 99.63 35.28 90.74C31.81 81.44 30.75 72.25 29.48 62.34C30.09 67.5 29.64 52.94 29.48 62.34Z" fill="white"/>
</svg>
