<svg width="214" height="197" viewBox="0 0 214 197" fill="none" xmlns="http://www.w3.org/2000/svg">
<path d="M106.67 3.71997C54.38 3.71997 11.99 46.11 11.99 98.4C11.99 150.69 54.38 193.08 106.67 193.08C158.96 193.08 201.35 150.69 201.35 98.4C201.35 46.11 158.96 3.71997 106.67 3.71997ZM146.85 63.21C146.54 64.97 146.15 66.71 145.78 68.46C144.83 72.97 143.87 77.49 142.91 82C141.71 87.66 140.5 93.32 139.3 98.98C137.86 105.79 136.42 112.59 134.97 119.4C133.9 124.46 132.82 129.52 131.74 134.57C131.53 135.57 131.27 136.56 130.77 137.47C130.58 137.81 130.38 138.15 130.14 138.46C129.3 139.53 128.18 139.96 126.84 139.81C125.39 139.64 124.07 139.11 122.89 138.24C115.73 132.93 108.57 127.62 101.41 122.3C101.26 122.19 101.11 122.09 100.92 121.96C99.7 123.14 98.52 124.28 97.34 125.42C94.98 127.7 92.65 130 90.26 132.24C89.11 133.32 87.81 134.18 86.23 134.53C85.98 134.59 85.72 134.6 85.39 134.64C85.39 134.41 85.38 134.23 85.39 134.06C85.6 131.41 85.81 128.75 86.02 126.1C86.22 123.52 86.42 120.94 86.62 118.36C86.79 116.19 86.97 114.02 87.13 111.85C87.15 111.51 87.32 111.31 87.54 111.11C89.88 108.98 92.21 106.84 94.55 104.71C103.51 96.52 112.47 88.34 121.42 80.15C123.93 77.85 126.45 75.56 128.96 73.25C129.22 73.01 129.46 72.75 129.65 72.46C129.93 72.03 129.78 71.67 129.3 71.49C128.85 71.32 128.38 71.32 127.93 71.46C127.51 71.6 127.09 71.77 126.72 72.01C122.73 74.51 118.76 77.04 114.77 79.55C106.06 85.03 97.35 90.51 88.64 96C84.07 98.87 79.5 101.75 74.94 104.63C74.59 104.85 74.3 104.89 73.9 104.77C66.83 102.59 59.75 100.42 52.67 98.25C52.1 98.08 51.51 97.97 50.96 97.75C50.43 97.55 49.89 97.31 49.42 96.98C48.49 96.33 48.27 95.35 48.74 94.32C49.08 93.57 49.62 93 50.3 92.54C51.22 91.92 52.23 91.49 53.25 91.1C61.16 88.04 69.08 84.99 76.99 81.94C86.5 78.27 96.01 74.6 105.53 70.93C111.92 68.47 118.3 66 124.69 63.53C129.86 61.53 135.03 59.53 140.21 57.55C140.76 57.34 141.34 57.18 141.93 57.07C143.91 56.71 145.66 57.72 146.48 59.66C146.98 60.8 147.06 62 146.85 63.21Z" fill="white"/>
</svg>
