<svg width="219" height="197" viewBox="0 0 219 197" fill="none" xmlns="http://www.w3.org/2000/svg">
<path d="M110.89 48.15C87.4599 48.15 68.1199 65.95 65.9099 88.65C65.7599 90.08 65.6799 91.54 65.6799 93C65.6799 102.82 68.8799 111.9 74.2899 119.3L68.6499 135.96L86.0199 130.42C93.1699 135.13 101.7 137.85 110.89 137.85C135.81 137.85 156.1 117.74 156.1 93C156.1 91.82 156.05 90.66 155.95 89.5C154.14 66.4 134.63 48.15 110.89 48.15ZM137.27 111.51C136.19 114.58 130.8 117.53 128.39 117.73C125.97 117.96 125.97 119.69 112.56 114.48C99.1699 109.22 90.7099 95.58 90.0599 94.72C89.5599 94.07 86.6899 90.26 85.3499 85.66C84.9499 84.22 84.6699 82.71 84.6699 81.2C84.6699 74.76 88.0699 71.58 89.2799 70.28C90.4899 68.97 91.9199 68.64 92.7999 68.64C93.6799 68.64 94.5599 68.77 95.3199 68.77C96.0999 68.77 97.2099 68.32 98.2899 70.93C99.3999 73.55 102.04 79.99 102.37 80.65C102.7 81.3 102.92 82.06 102.47 82.94C102.17 83.57 101.94 84.02 101.64 84.5C101.49 84.7 101.34 84.9 101.16 85.13C100.48 85.89 99.7799 86.82 99.1699 87.42C98.5199 88.07 97.8399 88.78 98.5899 90.09C99.3499 91.4 102.01 95.68 105.91 99.13C110.94 103.61 115.2 104.97 116.51 105.62C117.84 106.27 118.6 106.17 119.38 105.29C120.14 104.43 122.68 101.49 123.56 100.18C124.44 98.87 125.32 99.07 126.53 99.53C127.74 99.96 134.21 103.13 135.54 103.78C136.85 104.43 137.73 104.76 138.06 105.29C138.38 105.84 138.38 108.46 137.27 111.51Z" fill="white"/>
<path d="M109.64 3.79004C57.35 3.79004 14.96 46.18 14.96 98.47C14.96 150.76 57.35 193.15 109.64 193.15C161.93 193.15 204.32 150.76 204.32 98.47C204.32 46.18 161.93 3.79004 109.64 3.79004ZM110.89 146.37C101.48 146.37 92.62 143.95 84.91 139.72L55.13 149.18L64.82 120.56C59.94 112.51 57.12 103.09 57.12 93C57.12 92.22 57.14 91.44 57.17 90.66C58.44 62.27 82 39.65 110.89 39.65C140.14 39.65 163.9 62.81 164.63 91.65C164.65 92.1 164.65 92.56 164.65 93.01C164.66 122.48 140.59 146.37 110.89 146.37Z" fill="white"/>
</svg>
